<svg xmlns="http://www.w3.org/2000/svg" version="1.1" xmlns:xlink="http://www.w3.org/1999/xlink" xmlns:svgjs="http://svgjs.dev/svgjs" width="1000" height="1000" viewBox="0 0 1000 1000"><rect width="1000" height="1000" fill="#0d1116"></rect><g transform="matrix(0.7,0,0,0.7,149.90044910179654,149.90044910179637)"><svg viewBox="0 0 334 334" data-background-color="#0d1116" preserveAspectRatio="xMidYMid meet" height="1000" width="1000" xmlns="http://www.w3.org/2000/svg" xmlns:xlink="http://www.w3.org/1999/xlink"><g id="tight-bounds" transform="matrix(1,0,0,1,0.04749999999998522,0.04750000000001364)"><svg viewBox="0 0 333.90454557049503 333.90454557049503" height="333.90454557049503" width="333.90454557049503"><g><svg></svg></g><g><svg viewBox="0 0 333.90454557049503 333.90454557049503" height="333.90454557049503" width="333.90454557049503"><g><path d="M0 166.952c0-92.205 74.747-166.952 166.952-166.952 92.205 0 166.952 74.747 166.953 166.952 0 92.205-74.747 166.952-166.953 166.953-92.205 0-166.952-74.747-166.952-166.953zM166.952 329.586c89.82 0 162.634-72.814 162.634-162.634 0-89.82-72.814-162.634-162.634-162.633-89.82 0-162.634 72.814-162.633 162.633 0 89.82 72.814 162.634 162.633 162.634z" data-fill-palette-color="tertiary" fill="#01ff70" stroke="transparent"></path><ellipse rx="160.27418187383762" ry="160.27418187383762" cx="166.95227278524752" cy="166.95227278524752" fill="#01ff70" stroke="transparent" stroke-width="0" fill-opacity="1" data-fill-palette-color="tertiary"></ellipse></g><g transform="matrix(1,0,0,1,104.32858761869508,71.17305217166896)"><svg viewBox="0 0 125.24737033310485 191.55844122715712" height="191.55844122715712" width="125.24737033310485"><g><svg viewBox="0 0 125.24737033310485 191.55844122715712" height="191.55844122715712" width="125.24737033310485"><g><svg viewBox="0 0 213.15844122715708 326.0132218927089" height="191.55844122715712" width="125.24737033310485"><g transform="matrix(1,0,0,1,0,244.5114649529135)"><svg viewBox="0 0 213.15844122715708 81.50175693979536" height="81.50175693979536" width="213.15844122715708"><g><svg viewBox="0 0 213.15844122715708 81.50175693979536" height="81.50175693979536" width="213.15844122715708"><g><svg viewBox="0 0 213.15844122715708 81.50175693979536" height="81.50175693979536" width="213.15844122715708"><g transform="matrix(1,0,0,1,0,0)"><svg width="213.15844122715708" viewBox="3.5999999999999996 -31.75 83.30000000000001 31.85" height="81.50175693979536" data-palette-color="#0d1116"><path d="M24.5-28.1Q24.5-29.55 25.18-30.63 25.85-31.7 27.2-31.7L27.2-31.7Q28.35-31.7 29.25-31.25 30.15-30.8 30.15-29.75L30.15-29.75Q30.15-27.7 29.95-24L29.95-24Q29.75-20.4 29.75-18.65L29.75-18.65Q29.75-15.9 29.95-11.3L29.95-11.3Q30.15-6.9 30.15-4.85L30.15-4.85Q30.15-3.2 30.1-2.4L30.1-2.4Q30.1-1.6 29.23-0.83 28.35-0.05 26.55-0.05L26.55-0.05Q25.6-0.05 24.93-0.38 24.25-0.7 24-1.1L24-1.1Q21.65-3.95 17.15-10.8L17.15-10.8Q12.1-18.45 8.9-22.5L8.9-22.5Q9.3-18.9 9.3-13.7L9.3-13.7Q9.3-11.4 9.22-7.73 9.15-4.05 9-2.9L9-2.9Q8.8-1.45 8.13-0.68 7.45 0.1 6 0.1L6 0.1Q4.9 0.1 4.38-0.53 3.85-1.15 3.75-2.7L3.75-2.7Q3.7-4.75 4-8.85L4-8.85Q4.05-9.5 4.15-11.1 4.25-12.7 4.25-13.95L4.25-13.95Q4.25-17.4 3.9-21.85L3.9-21.85Q3.6-26.75 3.6-29.1L3.6-29.1Q3.6-30.3 4.48-30.95 5.35-31.6 6.5-31.6L6.5-31.6Q7.5-31.6 8.6-31.1L8.6-31.1Q12.9-25.7 20.25-15L20.25-15 24.95-7.8Q25-8.6 25-10.05L25-10.05Q25-12.6 24.9-15.55 24.8-18.5 24.75-19.55L24.75-19.55Q24.5-24.4 24.5-28.1L24.5-28.1ZM43-1.8Q42.85-1.05 42.12-0.53 41.4 0 40.1 0L40.1 0Q39 0 38.37-0.6 37.75-1.2 37.7-1.85L37.7-1.85Q38-3.95 38-8.15L38-8.15Q38-10.65 37.7-15.85L37.7-15.85Q37.35-20.75 37.35-24.55L37.35-24.55Q37.35-26.6 37.55-28.75L37.55-28.75Q37.55-29.45 38.37-30.25 39.2-31.05 40.65-31.25L40.65-31.25Q45.4-31.75 52.3-31.75L52.3-31.75 53.9-31.75Q55.7-31.75 57.42-31.1 59.15-30.45 59.15-28.85L59.15-28.85Q59.15-27.8 58.65-27.2 58.15-26.6 56.8-26.6L56.8-26.6Q56.15-26.6 55.3-26.7 54.45-26.8 54.1-26.85L54.1-26.85Q52.2-27.15 51.15-27.15L51.15-27.15Q45.35-27.15 42.4-26.35L42.4-26.35Q42.4-24.7 42.5-21L42.5-21 42.55-17.8Q45.15-17.8 47.2-18.03 49.25-18.25 49.55-18.3L49.55-18.3Q52.15-18.6 53-18.6L53-18.6Q54.2-18.6 55.02-18.07 55.85-17.55 55.85-16.45L55.85-16.45Q55.85-13.95 52.35-13.95L52.35-13.95Q51.5-13.95 50.85-13.9 50.2-13.85 49.75-13.8L49.75-13.8Q47.95-13.6 46.9-13.6L46.9-13.6Q44.6-13.6 43-13.45L43-13.45Q43-11.6 43.15-9.55L43.15-9.55Q43.15-8.9 43.22-7.55 43.3-6.2 43.3-5.1L43.3-5.1Q43.3-4.15 43.25-3.35 43.2-2.55 43-1.8L43-1.8ZM59.95-29.15Q59.95-31.3 63.1-31.3L63.1-31.3Q64.45-31.3 68.25-31.2L68.25-31.2Q72.45-31 74.6-31L74.6-31Q76.35-31 78.85-31.2L78.85-31.2Q80.55-31.3 81-31.3L81-31.3Q83.75-31.2 85.65-30.3L85.65-30.3Q86.2-30.05 86.55-29.7 86.9-29.35 86.9-28.55L86.9-28.55Q86.9-27.45 86.2-26.68 85.5-25.9 84.5-25.9L84.5-25.9Q83.4-25.9 81.3-26.2L81.3-26.2Q79.45-26.55 78.05-26.55L78.05-26.55Q76.7-26.55 76-26.5L76-26.5Q75.85-24.85 75.85-18.6L75.85-18.6Q75.85-11.15 76.3-3.5L76.3-3.5 76.4-2.05Q76.4 0 74.05 0L74.05 0Q72.2 0 71.55-0.88 70.9-1.75 70.9-3.55L70.9-3.55Q70.9-7.1 70.7-12.4L70.7-12.4Q70.5-16.8 70.5-18.65L70.5-18.65Q70.5-19.9 70.8-26.3L70.8-26.3 64.95-26.25Q62.15-26.25 61.05-26.78 59.95-27.3 59.95-29.15L59.95-29.15Z" opacity="1" transform="matrix(1,0,0,1,0,0)" fill="#0d1116" class="undefined-text-0" data-fill-palette-color="quaternary" id="text-0"></path></svg></g></svg></g></svg></g></svg></g><g transform="matrix(1,0,0,1,11.808245272858485,0)"><svg viewBox="0 0 189.5419506814401 225.27085618159438" height="225.27085618159438" width="189.5419506814401"><g><svg xmlns="http://www.w3.org/2000/svg" xmlns:xlink="http://www.w3.org/1999/xlink" version="1.1" x="0" y="0" viewBox="11 6.999750000000001 42.07 50.00025" enable-background="new 0 0 64 64" xml:space="preserve" height="225.27085618159438" width="189.5419506814401" class="icon-icon-0" data-fill-palette-color="quaternary" id="icon-0"><g fill="#0d1116" data-fill-palette-color="quaternary"><g fill="#0d1116" data-fill-palette-color="quaternary"><path d="M32 25c-3.86 0-7 3.14-7 7 0 3.859 3.14 7 7 7 3.859 0 7-3.141 7-7C39 28.14 35.859 25 32 25zM32 37c-2.757 0-5-2.243-5-5s2.243-5 5-5 5 2.243 5 5S34.757 37 32 37z" fill="#0d1116" data-fill-palette-color="quaternary"></path><path d="M32.707 45.293c-0.391-0.391-1.023-0.391-1.414 0l-4 4c-0.391 0.391-0.391 1.023 0 1.414s1.023 0.391 1.414 0L31 48.414V56c0 0.553 0.448 1 1 1s1-0.447 1-1v-7.586l2.293 2.293C35.488 50.902 35.744 51 36 51s0.512-0.098 0.707-0.293c0.391-0.391 0.391-1.023 0-1.414L32.707 45.293z" fill="#0d1116" data-fill-palette-color="quaternary"></path><path d="M28.707 12.707L31 10.414V18c0 0.552 0.448 1 1 1s1-0.448 1-1v-7.586l2.293 2.293C35.488 12.902 35.744 13 36 13s0.512-0.098 0.707-0.293c0.391-0.391 0.391-1.023 0-1.414l-4-4c-0.391-0.391-1.023-0.391-1.414 0l-4 4c-0.391 0.391-0.391 1.023 0 1.414S28.316 13.098 28.707 12.707z" fill="#0d1116" data-fill-palette-color="quaternary"></path><path d="M52.07 15h-5.656c-0.553 0-1 0.448-1 1s0.447 1 1 1h3.242l-5.363 5.364c-0.391 0.391-0.391 1.023 0 1.414 0.195 0.195 0.451 0.293 0.707 0.293s0.512-0.098 0.707-0.293l5.363-5.364v3.242c0 0.552 0.447 1 1 1s1-0.448 1-1V16C53.07 15.448 52.623 15 52.07 15z" fill="#0d1116" data-fill-palette-color="quaternary"></path><path d="M14.414 17h3.243c0.552 0 1-0.448 1-1s-0.448-1-1-1H12c-0.552 0-1 0.448-1 1v5.657c0 0.552 0.448 1 1 1s1-0.448 1-1v-3.242l5.363 5.364c0.195 0.195 0.451 0.293 0.707 0.293s0.512-0.098 0.707-0.293c0.391-0.391 0.391-1.023 0-1.414L14.414 17z" fill="#0d1116" data-fill-palette-color="quaternary"></path></g></g></svg></g></svg></g><g></g></svg></g></svg></g></svg></g></svg></g><defs></defs></svg><rect width="333.90454557049503" height="333.90454557049503" fill="none" stroke="none" visibility="hidden"></rect></g></svg></g></svg>